<svg width="241" height="374" viewBox="0 0 241 374" fill="none" xmlns="http://www.w3.org/2000/svg">
<path d="M160.151 211.156C128.941 262.28 96.2134 305.818 68.5381 334.88C54.6976 349.414 42.1394 360.307 31.6815 366.723C26.4519 369.931 21.7712 372.004 17.7353 372.864C13.7025 373.724 10.3549 373.364 7.73419 371.764C5.11348 370.164 3.26349 367.351 2.1847 363.371C1.10509 359.389 0.810256 354.278 1.27379 348.16C2.20072 335.926 6.15074 319.777 12.7527 300.825C25.954 262.927 49.7219 213.92 80.9319 162.795C112.142 111.67 144.869 68.1329 172.544 39.071C186.385 24.537 198.943 13.6435 209.401 7.22794C214.631 4.01973 219.311 1.94621 223.347 1.08632C227.38 0.227079 230.728 0.586935 233.348 2.18679C235.969 3.78664 237.819 6.59974 238.898 10.5794C239.977 14.5621 240.272 19.673 239.809 25.7908C238.882 38.0247 234.932 54.1732 228.33 73.126C215.129 111.024 191.361 160.031 160.151 211.156Z" stroke="#837C7C"/>
</svg>
