<svg width="30" height="30" viewBox="0 0 30 30" fill="none" xmlns="http://www.w3.org/2000/svg">
<path d="M15 7.875C13.5908 7.875 12.2133 8.29287 11.0416 9.07578C9.86986 9.85868 8.95663 10.9715 8.41736 12.2734C7.87808 13.5753 7.73699 15.0079 8.01191 16.39C8.28683 17.7721 8.96542 19.0417 9.96186 20.0381C10.9583 21.0346 12.2279 21.7132 13.61 21.9881C14.9921 22.263 16.4247 22.1219 17.7266 21.5826C19.0285 21.0434 20.1413 20.1301 20.9242 18.9584C21.7071 17.7867 22.125 16.4092 22.125 15C22.125 13.1103 21.3743 11.2981 20.0381 9.96186C18.7019 8.62567 16.8897 7.875 15 7.875ZM15 19.75C14.0605 19.75 13.1422 19.4714 12.361 18.9495C11.5799 18.4275 10.9711 17.6857 10.6116 16.8177C10.2521 15.9498 10.158 14.9947 10.3413 14.0733C10.5245 13.1519 10.9769 12.3055 11.6412 11.6412C12.3055 10.9769 13.1519 10.5245 14.0733 10.3413C14.9947 10.158 15.9498 10.2521 16.8177 10.6116C17.6857 10.9711 18.4275 11.5799 18.9495 12.361C19.4714 13.1422 19.75 14.0605 19.75 15C19.7461 16.2586 19.2444 17.4645 18.3544 18.3544C17.4645 19.2444 16.2586 19.7461 15 19.75ZM21.5312 0.15625H8.46875C6.26414 0.15625 4.14982 1.03203 2.59092 2.59092C1.03203 4.14982 0.15625 6.26414 0.15625 8.46875V21.5312C0.15625 23.7359 1.03203 25.8502 2.59092 27.4091C4.14982 28.968 6.26414 29.8438 8.46875 29.8438H21.5312C23.7359 29.8438 25.8502 28.968 27.4091 27.4091C28.968 25.8502 29.8438 23.7359 29.8438 21.5312V8.46875C29.8438 6.26414 28.968 4.14982 27.4091 2.59092C25.8502 1.03203 23.7359 0.15625 21.5312 0.15625ZM27.4688 21.5312C27.4688 22.311 27.3152 23.0831 27.0168 23.8034C26.7184 24.5238 26.281 25.1783 25.7297 25.7297C25.1783 26.281 24.5238 26.7184 23.8034 27.0168C23.0831 27.3152 22.311 27.4688 21.5312 27.4688H8.46875C7.68903 27.4688 6.91694 27.3152 6.19657 27.0168C5.4762 26.7184 4.82165 26.281 4.2703 25.7297C3.71896 25.1783 3.2816 24.5238 2.98322 23.8034C2.68483 23.0831 2.53125 22.311 2.53125 21.5312V8.46875C2.53125 6.89403 3.15681 5.3838 4.2703 4.2703C5.3838 3.15681 6.89403 2.53125 8.46875 2.53125H21.5312C22.311 2.53125 23.0831 2.68483 23.8034 2.98322C24.5238 3.2816 25.1783 3.71896 25.7297 4.2703C26.281 4.82165 26.7184 5.4762 27.0168 6.19657C27.3152 6.91694 27.4688 7.68903 27.4688 8.46875V21.5312ZM24.5 7.28125C24.5 7.63355 24.3955 7.97793 24.1998 8.27086C24.0041 8.56378 23.7259 8.79209 23.4004 8.92691C23.0749 9.06173 22.7168 9.097 22.3712 9.02827C22.0257 8.95954 21.7083 8.7899 21.4592 8.54078C21.2101 8.29167 21.0405 7.97428 20.9717 7.62876C20.903 7.28323 20.9383 6.92508 21.0731 6.5996C21.2079 6.27411 21.4362 5.99592 21.7291 5.80019C22.0221 5.60447 22.3665 5.5 22.7188 5.5C23.1912 5.5 23.6442 5.68767 23.9783 6.02172C24.3123 6.35576 24.5 6.80883 24.5 7.28125Z" fill="#6B6969"/>
</svg>
